<svg id="Layer_1" data-name="Layer 1" xmlns="http://www.w3.org/2000/svg" viewBox="0 0 421.36 134.4"><defs><style>.cls-1{fill:#00a1e0;}.cls-2{fill:#3a3a3a;}</style></defs><title>color_logo_darktxt</title><path class="cls-1" d="M495,409a25,25,0,1,1,25-25A25,25,0,0,1,495,409Zm0-47.2A22.21,22.21,0,1,0,517.2,384,22.21,22.21,0,0,0,495,361.79Z" transform="translate(-434.38 -316.8)"/><path class="cls-1" d="M495,352.65a1.4,1.4,0,0,1-.86-.3l-7.47-6.14a1.39,1.39,0,1,1,1.54-2.31l.18.14,6.75,5.56,6.74-5.56a1.39,1.39,0,1,1,1.91,2,1.19,1.19,0,0,1-.18.15l-7.75,6.14A1.43,1.43,0,0,1,495,352.65Z" transform="translate(-434.38 -316.8)"/><path class="cls-1" d="M495,337.05a1.23,1.23,0,0,1-.86-.31l-5.56-4.55a1.39,1.39,0,0,1,1.75-2.17l4.67,4,4.8-3.86a1.39,1.39,0,1,1,1.75,2.17L496,336.88A1.31,1.31,0,0,1,495,337.05Z" transform="translate(-434.38 -316.8)"/><path class="cls-1" d="M495,322.75a1.48,1.48,0,0,1-.86-.31l-3.95-3.17a1.39,1.39,0,0,1,1.75-2.16l3.06,2.47,3.05-2.47a1.39,1.39,0,1,1,1.75,2.16l-3.94,3.17A1.5,1.5,0,0,1,495,322.75Z" transform="translate(-434.38 -316.8)"/><path class="cls-1" d="M457.53,372.53a1.4,1.4,0,0,1-1.3-.89,1.37,1.37,0,0,1,.8-1.77l8.05-3.14-1.33-8.53a1.41,1.41,0,1,1,2.78-.44l1.47,9.58a1.36,1.36,0,0,1-.86,1.5L458,372.37Z" transform="translate(-434.38 -316.8)"/><path class="cls-1" d="M446.34,363.87A1.46,1.46,0,0,1,445,363a1.4,1.4,0,0,1,.79-1.8h0l5.75-2.23-1-6.1a1.4,1.4,0,0,1,1.16-1.59h0a1.42,1.42,0,0,1,1.58,1.17l1.11,7.19a1.39,1.39,0,0,1-.86,1.5l-6.8,2.78A1.49,1.49,0,0,1,446.34,363.87Z" transform="translate(-434.38 -316.8)"/><path class="cls-1" d="M436,355.9a1.41,1.41,0,1,1-.5-2.78l3.66-1.41-.61-3.81a1.4,1.4,0,0,1,1.17-1.58h0a1.42,1.42,0,0,1,1.58,1.17l.89,5a1.43,1.43,0,0,1-.89,1.52l-4.66,1.81A1.09,1.09,0,0,1,436,355.9Z" transform="translate(-434.38 -316.8)"/><path class="cls-1" d="M465.14,411.41h-.22a1.4,1.4,0,0,1-1.17-1.58h0l1.33-8.52L457,398.16a1.38,1.38,0,0,1,1-2.59h0l9.19,3.5a1.36,1.36,0,0,1,.86,1.5l-1.5,9.66A1.39,1.39,0,0,1,465.14,411.41Z" transform="translate(-434.38 -316.8)"/><path class="cls-1" d="M452,416.77h-.22a1.4,1.4,0,0,1-1.17-1.58h0l.95-6.11-5.75-2.22a1.39,1.39,0,0,1,.81-2.65l.19.07,6.8,2.78a1.39,1.39,0,0,1,.86,1.5l-1.16,7A1.41,1.41,0,0,1,452,416.77Z" transform="translate(-434.38 -316.8)"/><path class="cls-1" d="M440,421.71h-.19a1.4,1.4,0,0,1-1.17-1.58h0l.61-3.89-3.66-1.42a1.39,1.39,0,1,1,.81-2.65l.19.07,4.69,1.81a1.43,1.43,0,0,1,.89,1.52l-.78,5A1.41,1.41,0,0,1,440,421.71Z" transform="translate(-434.38 -316.8)"/><path class="cls-1" d="M502.6,424.26a1.38,1.38,0,0,1-.86-.3L495,418.4,488.24,424a1.39,1.39,0,0,1-1.94-.22,1.36,1.36,0,0,1,.18-1.92l0,0,7.61-6.13a1.41,1.41,0,0,1,1.72,0l7.61,6.13a1.37,1.37,0,0,1,.25,1.91l0,0A1.46,1.46,0,0,1,502.6,424.26Z" transform="translate(-434.38 -316.8)"/><path class="cls-1" d="M500.54,438.29a1.5,1.5,0,0,1-.86-.31L495,434.12,490.18,438a1.39,1.39,0,0,1-1.74-2.17l5.55-4.55a1.33,1.33,0,0,1,1.72,0l5.55,4.55a1.37,1.37,0,0,1,.22,1.92l0,0A1.38,1.38,0,0,1,500.54,438.29Z" transform="translate(-434.38 -316.8)"/><path class="cls-1" d="M498.93,451.2a1.46,1.46,0,0,1-.89-.31L495,448.42l-3.06,2.47a1.39,1.39,0,0,1-1.75-2.16l3.95-3.17a1.33,1.33,0,0,1,1.72,0l3.94,3.17a1.35,1.35,0,0,1,.22,1.91l0,0A1.39,1.39,0,0,1,498.93,451.2Z" transform="translate(-434.38 -316.8)"/><path class="cls-1" d="M524.84,411.41a1.39,1.39,0,0,1-1.36-1.17l-1.5-9.58a1.36,1.36,0,0,1,.86-1.5l9.11-3.52a1.39,1.39,0,0,1,1.8.78v0a1.39,1.39,0,0,1-.8,1.78l-8.06,3.14,1.34,8.52a1.39,1.39,0,0,1-1.17,1.58h0Z" transform="translate(-434.38 -316.8)"/><path class="cls-1" d="M537.94,416.77a1.4,1.4,0,0,1-1.36-1.2l-1.11-7.19a1.4,1.4,0,0,1,.86-1.5l6.81-2.78a1.39,1.39,0,0,1,1.19,2.51l-.19.08-5.75,2.22.94,6.11a1.39,1.39,0,0,1-1.16,1.58h0Z" transform="translate(-434.38 -316.8)"/><path class="cls-1" d="M550,421.71a1.43,1.43,0,0,1-1.39-1.2l-.88-5a1.43,1.43,0,0,1,.88-1.52l4.7-1.81a1.39,1.39,0,1,1,1.19,2.51l-.19.07-3.67,1.42.61,3.89a1.38,1.38,0,0,1-1.16,1.58h0Z" transform="translate(-434.38 -316.8)"/><path class="cls-1" d="M532.45,372.53H532l-9.19-3.61a1.38,1.38,0,0,1-.87-1.5l1.5-9.66a1.37,1.37,0,0,1,1.55-1.14h0a1.38,1.38,0,0,1,1.16,1.58h0l-1.33,8.53,8.05,3.14a1.39,1.39,0,0,1,.81,1.77A1.4,1.4,0,0,1,532.45,372.53Z" transform="translate(-434.38 -316.8)"/><path class="cls-1" d="M543.64,363.87a1.4,1.4,0,0,1-.5,0l-6.81-2.78a1.4,1.4,0,0,1-.86-1.5l1.11-7.19a1.41,1.41,0,0,1,1.59-1.16,1.38,1.38,0,0,1,1.16,1.57h0l-.94,6.19,5.75,2.22A1.4,1.4,0,0,1,545,363v0A1.44,1.44,0,0,1,543.64,363.87Z" transform="translate(-434.38 -316.8)"/><path class="cls-1" d="M553.94,355.9a1.06,1.06,0,0,1-.5,0l-4.69-1.8a1.45,1.45,0,0,1-.89-1.53l.77-5a1.43,1.43,0,0,1,1.59-1.17,1.38,1.38,0,0,1,1.16,1.58h0l-.61,3.89,3.67,1.42a1.41,1.41,0,1,1-.5,2.77Z" transform="translate(-434.38 -316.8)"/><path class="cls-2" d="M581.38,409.19a10.48,10.48,0,0,1-4.25-4.67,16.84,16.84,0,0,1-1.47-7.35V370.11a16.92,16.92,0,0,1,1.47-7.38,10.45,10.45,0,0,1,4.23-4.67,14.7,14.7,0,0,1,13.38,0,10.33,10.33,0,0,1,4.23,4.67,17,17,0,0,1,1.45,7.34V372h-5.28v-1.94a11.59,11.59,0,0,0-.82-4.61,6.24,6.24,0,0,0-2.42-2.91,7.82,7.82,0,0,0-7.69,0,6.38,6.38,0,0,0-2.43,2.93,11.5,11.5,0,0,0-.84,4.63v27.06a11.42,11.42,0,0,0,.84,4.6,6.38,6.38,0,0,0,2.43,2.93,7.82,7.82,0,0,0,7.69,0,6.24,6.24,0,0,0,2.42-2.91,11.61,11.61,0,0,0,.82-4.62v-1.94h5.28v1.94a17,17,0,0,1-1.45,7.35,10.39,10.39,0,0,1-4.23,4.67,14.66,14.66,0,0,1-13.36,0Z" transform="translate(-434.38 -316.8)"/><path class="cls-2" d="M607,357h5.27v53.25H607Zm3.74,48.34h18.38v4.91H610.75Z" transform="translate(-434.38 -316.8)"/><path class="cls-2" d="M640.7,409.22a10.53,10.53,0,0,1-4.52-4.58,15.53,15.53,0,0,1-1.56-7.25V369.85a15.56,15.56,0,0,1,1.56-7.25A10.56,10.56,0,0,1,640.7,358,16.92,16.92,0,0,1,655,358a10.58,10.58,0,0,1,4.53,4.57,15.68,15.68,0,0,1,1.55,7.25v27.54a15.65,15.65,0,0,1-1.55,7.25,10.55,10.55,0,0,1-4.53,4.58,16.92,16.92,0,0,1-14.28,0Zm11.45-4.52a6.32,6.32,0,0,0,2.71-2.73,9.28,9.28,0,0,0,.93-4.32v-28a9.25,9.25,0,0,0-.93-4.32,6.32,6.32,0,0,0-2.71-2.73,10.33,10.33,0,0,0-8.61,0,6.22,6.22,0,0,0-2.71,2.73,9.25,9.25,0,0,0-.93,4.32v28a9.28,9.28,0,0,0,.93,4.32,6.22,6.22,0,0,0,2.71,2.73,10.43,10.43,0,0,0,8.61,0Z" transform="translate(-434.38 -316.8)"/><path class="cls-2" d="M673.37,409.42a8.78,8.78,0,0,1-4-4.15,16.08,16.08,0,0,1-1.34-7V357h5.27v41.56a7.38,7.38,0,0,0,1.71,5.32,6.79,6.79,0,0,0,5.11,1.75,6.93,6.93,0,0,0,5.16-1.75,7.34,7.34,0,0,0,1.72-5.32V357h5.27v41.31a15.78,15.78,0,0,1-1.35,6.94,9,9,0,0,1-4,4.15,17.06,17.06,0,0,1-13.49,0Z" transform="translate(-434.38 -316.8)"/><path class="cls-2" d="M699.22,357h5.28v53.25h-5.28Zm2.86,48.34h13a3.76,3.76,0,0,0,2.93-1.13,4.64,4.64,0,0,0,1-3.23V366.27a4.62,4.62,0,0,0-1-3.23,3.76,3.76,0,0,0-2.93-1.13h-13V357h12.74a10.86,10.86,0,0,1,5.13,1.12,7.36,7.36,0,0,1,3.22,3.26,11.23,11.23,0,0,1,1.1,5.18v34.13a11,11,0,0,1-1.12,5.18,7.45,7.45,0,0,1-3.24,3.26,10.79,10.79,0,0,1-5.12,1.12H702.08Z" transform="translate(-434.38 -316.8)"/><path class="cls-2" d="M740.24,357h6.37l12.3,53.25h-5.86l-9.63-47.35-9.63,47.35h-5.86Zm-5.46,35.41h18.09v4.91H734.78Z" transform="translate(-434.38 -316.8)"/><path class="cls-2" d="M756.35,357h5.57l8.75,47.24L779.42,357H785l-10.77,53.25h-7.1Z" transform="translate(-434.38 -316.8)"/><path class="cls-2" d="M795.06,410.25h-5.27V357h5.27Z" transform="translate(-434.38 -316.8)"/><path class="cls-2" d="M799.49,357h25.85v4.91H799.49Zm10.29,4.36h5.27v48.89h-5.27Z" transform="translate(-434.38 -316.8)"/><path class="cls-2" d="M844.64,387.87v22.38h-5.27V387.87L827.91,357h5.38L842,381.76,850.36,357h5.38Z" transform="translate(-434.38 -316.8)"/><path class="cls-1" d="M701.66,422.24H708v1.51h-6.34Zm1.34-1.73a3.79,3.79,0,0,1,.73-2.52,2.76,2.76,0,0,1,2.19-.83H708v1.63h-1.79a1.37,1.37,0,0,0-1.09.42,2,2,0,0,0-.36,1.28v14.42H703Z" transform="translate(-434.38 -316.8)"/><path class="cls-1" d="M713.62,435.09l-1.24-.67a4.45,4.45,0,0,1-1.9-1.94,6.6,6.6,0,0,1-.65-3.07V428a7.47,7.47,0,0,1,.63-3.21,4.48,4.48,0,0,1,1.82-2,5.59,5.59,0,0,1,2.88-.7,5.08,5.08,0,0,1,2.71.69,4.37,4.37,0,0,1,1.72,2,7.75,7.75,0,0,1,.59,3.16v1.45H711v-1.59h7.52v-.12a4.34,4.34,0,0,0-.88-2.91,3.1,3.1,0,0,0-2.5-1,3.46,3.46,0,0,0-2.73,1.08,4.46,4.46,0,0,0-1,3.08v1.61a4,4,0,0,0,1,3,3.85,3.85,0,0,0,2.89,1,4.45,4.45,0,0,0,1.74-.36,4.83,4.83,0,0,0,1.53-1l1.2,1.15a6.63,6.63,0,0,1-2.1,1.39,6,6,0,0,1-2.37.5Z" transform="translate(-434.38 -316.8)"/><path class="cls-1" d="M727,435.09l-1.25-.67a4.45,4.45,0,0,1-1.9-1.94,6.72,6.72,0,0,1-.65-3.07V428a7.47,7.47,0,0,1,.63-3.21,4.5,4.5,0,0,1,1.83-2,5.54,5.54,0,0,1,2.88-.7,5.1,5.1,0,0,1,2.71.69,4.35,4.35,0,0,1,1.71,2,7.59,7.59,0,0,1,.59,3.16v1.45h-9.15v-1.59H732v-.12a4.34,4.34,0,0,0-.89-2.91,3.1,3.1,0,0,0-2.49-1,3.48,3.48,0,0,0-2.74,1.08,4.51,4.51,0,0,0-1,3.08v1.61a4.05,4.05,0,0,0,1,3,3.87,3.87,0,0,0,2.9,1,4.52,4.52,0,0,0,1.74-.36,4.94,4.94,0,0,0,1.53-1l1.19,1.15a6.52,6.52,0,0,1-2.1,1.39,6,6,0,0,1-2.36.5Z" transform="translate(-434.38 -316.8)"/><path class="cls-1" d="M738.76,431.57a1.86,1.86,0,0,0,.39,1.26,1.45,1.45,0,0,0,1.11.44h1.17v1.64H740a2.77,2.77,0,0,1-2.19-.88,3.61,3.61,0,0,1-.78-2.48V417.16h1.76Z" transform="translate(-434.38 -316.8)"/><path class="cls-1" d="M747.54,422.24h5.71v1.51h-5.71Zm2,11.88a3.8,3.8,0,0,1-.72-2.51V418.55h1.76v13.08a1.93,1.93,0,0,0,.36,1.26,1.33,1.33,0,0,0,1.09.44h1.2V435h-1.44A2.78,2.78,0,0,1,749.56,434.12Z" transform="translate(-434.38 -316.8)"/><path class="cls-1" d="M756.67,417.16h1.75v17.75h-1.75Zm8.42,10.07a3.62,3.62,0,0,0-.89-2.61,3.27,3.27,0,0,0-2.49-.93,3.39,3.39,0,0,0-2.43.82,3.1,3.1,0,0,0-.86,2.34l-.25-2.44a4.13,4.13,0,0,1,1.78-1.8,5.7,5.7,0,0,1,2.58-.56,3.94,3.94,0,0,1,3.19,1.35,5.8,5.8,0,0,1,1.13,3.82v7.69h-1.76Z" transform="translate(-434.38 -316.8)"/><path class="cls-1" d="M774.06,435.09l-1.24-.67a4.4,4.4,0,0,1-1.9-1.94,6.6,6.6,0,0,1-.66-3.07V428a7.47,7.47,0,0,1,.63-3.21,4.5,4.5,0,0,1,1.83-2,5.59,5.59,0,0,1,2.88-.7,5.08,5.08,0,0,1,2.71.69,4.3,4.3,0,0,1,1.71,2,7.58,7.58,0,0,1,.6,3.16v1.45h-9.16v-1.59H779v-.12a4.34,4.34,0,0,0-.88-2.91,3.13,3.13,0,0,0-2.5-1,3.46,3.46,0,0,0-2.73,1.08,4.46,4.46,0,0,0-1,3.08v1.61a4,4,0,0,0,1,3,3.83,3.83,0,0,0,2.89,1,4.52,4.52,0,0,0,1.74-.36,4.94,4.94,0,0,0,1.53-1l1.2,1.15a6.63,6.63,0,0,1-2.1,1.39,6,6,0,0,1-2.37.5Z" transform="translate(-434.38 -316.8)"/><path class="cls-1" d="M791.59,435.09l-1.22-.61a4.05,4.05,0,0,1-1.83-1.83,7,7,0,0,1-.6-3.07V427.5a6.65,6.65,0,0,1,.61-3,4,4,0,0,1,1.83-1.81,6.69,6.69,0,0,1,3-.61,7.41,7.41,0,0,1,1.89.23,5,5,0,0,1,1.53.67,4.48,4.48,0,0,1,1.17,1.13l-1.3,1.16a4.44,4.44,0,0,0-1.46-1.17,4.22,4.22,0,0,0-1.79-.38,3.82,3.82,0,0,0-2.83.94,4,4,0,0,0-.93,2.87v2.08a4,4,0,0,0,.94,2.91,3.78,3.78,0,0,0,2.82,1,4.74,4.74,0,0,0,1.88-.36,4.68,4.68,0,0,0,1.54-1.11L798,433.1a4.4,4.4,0,0,1-1.17,1.11,5.29,5.29,0,0,1-1.53.66,7.43,7.43,0,0,1-1.89.22Z" transform="translate(-434.38 -316.8)"/><path class="cls-1" d="M802.52,431.57a1.86,1.86,0,0,0,.39,1.26,1.43,1.43,0,0,0,1.11.44h1.17v1.64h-1.47a2.8,2.8,0,0,1-2.19-.88,3.66,3.66,0,0,1-.77-2.48V417.16h1.76Z" transform="translate(-434.38 -316.8)"/><path class="cls-1" d="M810,434.44a4.23,4.23,0,0,1-1.79-1.88,6.54,6.54,0,0,1-.62-3v-2.06a6.39,6.39,0,0,1,.62-2.95,4.21,4.21,0,0,1,1.79-1.87,6.51,6.51,0,0,1,5.63,0,4.21,4.21,0,0,1,1.79,1.87,6.52,6.52,0,0,1,.62,2.95v2.1a6.57,6.57,0,0,1-.62,3,4.21,4.21,0,0,1-1.79,1.87,6.42,6.42,0,0,1-5.63,0Zm5.37-2a4.07,4.07,0,0,0,.91-2.84v-2.1a4,4,0,0,0-.91-2.82,3.78,3.78,0,0,0-5.12,0,4.08,4.08,0,0,0-.9,2.82v2.1a4.12,4.12,0,0,0,.9,2.84,3.78,3.78,0,0,0,5.12,0Z" transform="translate(-434.38 -316.8)"/><path class="cls-1" d="M823.07,429.94a3.62,3.62,0,0,0,.87,2.59,3.18,3.18,0,0,0,2.45.92,3.36,3.36,0,0,0,2.44-.84,3.18,3.18,0,0,0,.86-2.38l.17,2.65a3.85,3.85,0,0,1-1.53,1.58,5.1,5.1,0,0,1-2.63.63,4,4,0,0,1-3.24-1.35,5.68,5.68,0,0,1-1.15-3.8v-7.7h1.76Zm6.62-7.7h1.74v12.67h-1.74Z" transform="translate(-434.38 -316.8)"/><path class="cls-1" d="M836.87,434.49a3.82,3.82,0,0,1-1.5-1.76,6.57,6.57,0,0,1-.52-2.76v-2.75a7.12,7.12,0,0,1,.5-2.8,3.82,3.82,0,0,1,1.46-1.76,4.18,4.18,0,0,1,2.3-.61,5.57,5.57,0,0,1,2.55.55,4,4,0,0,1,1.75,1.77l-.26,2.44a3.31,3.31,0,0,0-.38-1.57,3.1,3.1,0,0,0-1.12-1.21,3.56,3.56,0,0,0-4.17.49,3.89,3.89,0,0,0-.87,2.71V430a3.79,3.79,0,0,0,.87,2.66,3.14,3.14,0,0,0,2.45.95,3.06,3.06,0,0,0,1.71-.48,3.18,3.18,0,0,0,1.12-1.24,3.46,3.46,0,0,0,.39-1.59l.17,2.65a3,3,0,0,1-1.51,1.66,5.81,5.81,0,0,1-2.58.51A4.48,4.48,0,0,1,836.87,434.49Zm6.28-17.33h1.76v17.75h-1.76Z" transform="translate(-434.38 -316.8)"/></svg>