<svg xmlns="http://www.w3.org/2000/svg" data-name="Layer 1" width="121" height="134" style=""><rect id="backgroundrect" width="100%" height="100%" x="0" y="0" fill="none" stroke="none" class="" style=""/><defs><style>.cls-1{fill:#00a1e0;}.cls-2{fill:#fff;}</style></defs><title>color_logo</title><g class="currentLayer" style=""><title>Layer 1</title><path class="cls-1" d="M60.662302389740944,92.20534471049905 a25,25 0 1 1 25,-25 A25,25 0 0 1 60.662302389740944,92.20534471049905 zm0,-47.2 A22.21,22.21 0 1 0 82.86230238974099,67.20534471049905 A22.21,22.21 0 0 0 60.662302389740944,44.99534471049907 z" id="svg_1"/><path class="cls-1" d="M60.662302389740944,35.855344710499025 a1.4,1.4 0 0 1 -0.8600000000000002,-0.3000000000000001 l-7.47,-6.14 a1.3900000000000001,1.3900000000000001 0 1 1 1.54,-2.31 l0.18000000000000005,0.14 l6.75,5.5600000000000005 l6.74,-5.5600000000000005 a1.3900000000000001,1.3900000000000001 0 1 1 1.9100000000000001,2 a1.19,1.19 0 0 1 -0.18000000000000005,0.15000000000000005 l-7.75,6.14 A1.4300000000000002,1.4300000000000002 0 0 1 60.662302389740944,35.855344710499025 z" id="svg_2"/><path class="cls-1" d="M60.662302389740944,20.25534471049906 a1.23,1.23 0 0 1 -0.8600000000000002,-0.3100000000000001 l-5.5600000000000005,-4.55 a1.3900000000000001,1.3900000000000001 0 0 1 1.75,-2.17 l4.67,4 l4.8,-3.8600000000000003 a1.3900000000000001,1.3900000000000001 0 1 1 1.75,2.17 L61.662302389740944,20.085344710499044 A1.31,1.31 0 0 1 60.662302389740944,20.25534471049906 z" id="svg_3"/><path class="cls-1" d="M60.662302389740944,5.955344710499048 a1.48,1.48 0 0 1 -0.8600000000000002,-0.3100000000000001 l-3.95,-3.17 a1.3900000000000001,1.3900000000000001 0 0 1 1.75,-2.16 l3.06,2.47 l3.05,-2.47 a1.3900000000000001,1.3900000000000001 0 1 1 1.75,2.16 l-3.94,3.17 A1.5,1.5 0 0 1 60.662302389740944,5.955344710499048 z" id="svg_4"/><path class="cls-1" d="M23.192302389740917,55.73534471049902 a1.4,1.4 0 0 1 -1.3,-0.8900000000000002 a1.37,1.37 0 0 1 0.8,-1.77 l8.05,-3.14 l-1.33,-8.53 a1.4100000000000001,1.4100000000000001 0 1 1 2.7800000000000002,-0.4400000000000001 l1.47,9.58 a1.36,1.36 0 0 1 -0.8600000000000002,1.5 L23.662302389740944,55.57534471049905 z" id="svg_5"/><path class="cls-1" d="M12.002302389740919,47.07534471049905 A1.46,1.46 0 0 1 10.662302389740944,46.20534471049905 a1.4,1.4 0 0 1 0.79,-1.8 h0 l5.75,-2.23 l-1,-6.1 a1.4,1.4 0 0 1 1.1600000000000001,-1.59 h0 a1.42,1.42 0 0 1 1.58,1.17 l1.11,7.19 a1.3900000000000001,1.3900000000000001 0 0 1 -0.8600000000000002,1.5 l-6.8,2.7800000000000002 A1.49,1.49 0 0 1 12.002302389740919,47.07534471049905 z" id="svg_6"/><path class="cls-1" d="M1.6623023897409441,39.105344710499025 a1.4100000000000001,1.4100000000000001 0 1 1 -0.5,-2.7800000000000002 l3.66,-1.4100000000000001 l-0.6100000000000002,-3.81 a1.4,1.4 0 0 1 1.17,-1.58 h0 a1.42,1.42 0 0 1 1.58,1.17 l0.8900000000000002,5 a1.4300000000000002,1.4300000000000002 0 0 1 -0.8900000000000002,1.52 l-4.66,1.81 A1.09,1.09 0 0 1 1.6623023897409441,39.105344710499025 z" id="svg_7"/><path class="cls-1" d="M30.80230238974093,94.61534471049907 h-0.22000000000000006 a1.4,1.4 0 0 1 -1.17,-1.58 h0 l1.33,-8.52 L22.662302389740944,81.36534471049907 a1.3800000000000001,1.3800000000000001 0 0 1 1,-2.59 h0 l9.19,3.5 a1.36,1.36 0 0 1 0.8600000000000002,1.5 l-1.5,9.66 A1.3900000000000001,1.3900000000000001 0 0 1 30.80230238974093,94.61534471049907 z" id="svg_8"/><path class="cls-1" d="M17.662302389740944,99.97534471049903 h-0.22000000000000006 a1.4,1.4 0 0 1 -1.17,-1.58 h0 l0.9500000000000002,-6.11 l-5.75,-2.22 a1.3900000000000001,1.3900000000000001 0 0 1 0.81,-2.6500000000000004 l0.19000000000000006,0.07 l6.8,2.7800000000000002 a1.3900000000000001,1.3900000000000001 0 0 1 0.8600000000000002,1.5 l-1.1600000000000001,7 A1.4100000000000001,1.4100000000000001 0 0 1 17.662302389740944,99.97534471049903 z" id="svg_9"/><path class="cls-1" d="M5.662302389740944,104.91534471049903 h-0.19000000000000006 a1.4,1.4 0 0 1 -1.17,-1.58 h0 l0.6100000000000002,-3.89 l-3.66,-1.42 a1.3900000000000001,1.3900000000000001 0 1 1 0.81,-2.6500000000000004 l0.19000000000000006,0.07 l4.69,1.81 a1.4300000000000002,1.4300000000000002 0 0 1 0.8900000000000002,1.52 l-0.78,5 A1.4100000000000001,1.4100000000000001 0 0 1 5.662302389740944,104.91534471049903 z" id="svg_10"/><path class="cls-1" d="M68.26230238974097,107.46534471049904 a1.3800000000000001,1.3800000000000001 0 0 1 -0.8600000000000002,-0.3000000000000001 L60.662302389740944,101.60534471049903 L53.90230238974095,107.20534471049905 a1.3900000000000001,1.3900000000000001 0 0 1 -1.94,-0.22000000000000006 a1.36,1.36 0 0 1 0.18000000000000005,-1.92 l0,0 l7.61,-6.13 a1.4100000000000001,1.4100000000000001 0 0 1 1.7200000000000002,0 l7.61,6.13 a1.37,1.37 0 0 1 0.25,1.9100000000000001 l0,0 A1.46,1.46 0 0 1 68.26230238974097,107.46534471049904 z" id="svg_11"/><path class="cls-1" d="M66.20230238974096,121.49534471049907 a1.5,1.5 0 0 1 -0.8600000000000002,-0.3100000000000001 L60.662302389740944,117.32534471049905 L55.84230238974095,121.20534471049905 a1.3900000000000001,1.3900000000000001 0 0 1 -1.7400000000000002,-2.17 l5.55,-4.55 a1.33,1.33 0 0 1 1.7200000000000002,0 l5.55,4.55 a1.37,1.37 0 0 1 0.22000000000000006,1.92 l0,0 A1.3800000000000001,1.3800000000000001 0 0 1 66.20230238974096,121.49534471049907 z" id="svg_12"/><path class="cls-1" d="M64.59230238974095,134.40534471049904 a1.46,1.46 0 0 1 -0.8900000000000002,-0.3100000000000001 L60.662302389740944,131.62534471049906 l-3.06,2.47 a1.3900000000000001,1.3900000000000001 0 0 1 -1.75,-2.16 l3.95,-3.17 a1.33,1.33 0 0 1 1.7200000000000002,0 l3.94,3.17 a1.35,1.35 0 0 1 0.22000000000000006,1.9100000000000001 l0,0 A1.3900000000000001,1.3900000000000001 0 0 1 64.59230238974095,134.40534471049904 z" id="svg_13"/><path class="cls-1" d="M90.50230238974098,94.61534471049907 a1.3900000000000001,1.3900000000000001 0 0 1 -1.36,-1.17 l-1.5,-9.58 a1.36,1.36 0 0 1 0.8600000000000002,-1.5 l9.11,-3.52 a1.3900000000000001,1.3900000000000001 0 0 1 1.8,0.78 v0 a1.3900000000000001,1.3900000000000001 0 0 1 -0.8,1.78 l-8.06,3.14 l1.34,8.52 a1.3900000000000001,1.3900000000000001 0 0 1 -1.17,1.58 h0 z" id="svg_14"/><path class="cls-1" d="M103.602302389741,99.97534471049903 a1.4,1.4 0 0 1 -1.36,-1.2 l-1.11,-7.19 a1.4,1.4 0 0 1 0.8600000000000002,-1.5 l6.8100000000000005,-2.7800000000000002 a1.3900000000000001,1.3900000000000001 0 0 1 1.19,2.51 l-0.19000000000000006,0.08000000000000003 l-5.75,2.22 l0.9400000000000002,6.11 a1.3900000000000001,1.3900000000000001 0 0 1 -1.1600000000000001,1.58 h0 z" id="svg_15"/><path class="cls-1" d="M115.66230238974094,104.91534471049903 a1.4300000000000002,1.4300000000000002 0 0 1 -1.3900000000000001,-1.2 l-0.8800000000000002,-5 a1.4300000000000002,1.4300000000000002 0 0 1 0.8800000000000002,-1.52 l4.7,-1.81 a1.3900000000000001,1.3900000000000001 0 1 1 1.19,2.51 l-0.19000000000000006,0.07 l-3.67,1.42 l0.6100000000000002,3.89 a1.3800000000000001,1.3800000000000001 0 0 1 -1.1600000000000001,1.58 h0 z" id="svg_16"/><path class="cls-1" d="M98.11230238974099,55.73534471049902 H97.66230238974094 l-9.19,-3.6100000000000003 a1.3800000000000001,1.3800000000000001 0 0 1 -0.8700000000000002,-1.5 l1.5,-9.66 a1.37,1.37 0 0 1 1.55,-1.1400000000000001 h0 a1.3800000000000001,1.3800000000000001 0 0 1 1.1600000000000001,1.58 h0 l-1.33,8.53 l8.05,3.14 a1.3900000000000001,1.3900000000000001 0 0 1 0.81,1.77 A1.4,1.4 0 0 1 98.11230238974099,55.73534471049902 z" id="svg_17"/><path class="cls-1" d="M109.30230238974093,47.07534471049905 a1.4,1.4 0 0 1 -0.5,0 l-6.8100000000000005,-2.7800000000000002 a1.4,1.4 0 0 1 -0.8600000000000002,-1.5 l1.11,-7.19 a1.4100000000000001,1.4100000000000001 0 0 1 1.59,-1.1600000000000001 a1.3800000000000001,1.3800000000000001 0 0 1 1.1600000000000001,1.57 h0 l-0.9400000000000002,6.19 l5.75,2.22 A1.4,1.4 0 0 1 110.66230238974094,46.20534471049905 v0 A1.44,1.44 0 0 1 109.30230238974093,47.07534471049905 z" id="svg_18"/><path class="cls-1" d="M119.602302389741,39.105344710499025 a1.06,1.06 0 0 1 -0.5,0 l-4.69,-1.8 a1.45,1.45 0 0 1 -0.8900000000000002,-1.53 l0.77,-5 a1.4300000000000002,1.4300000000000002 0 0 1 1.59,-1.17 a1.3800000000000001,1.3800000000000001 0 0 1 1.1600000000000001,1.58 h0 l-0.6100000000000002,3.89 l3.67,1.42 a1.4100000000000001,1.4100000000000001 0 1 1 -0.5,2.77 z" id="svg_19"/></g></svg>