<svg version="1.1" xmlns="http://www.w3.org/2000/svg" xmlns:xlink="http://www.w3.org/1999/xlink" xmlns:i="http://ns.adobe.com/AdobeIllustrator/10.0/" xmlns:sketch="http://www.bohemiancoding.com/sketch/ns" height="100%" width="100%" x="0px" y="0px" viewBox="0 0 640 480" xml:space="preserve" preserveAspectRatio="xMidYMid meet" class=""><rect x="0px" y="0px" width="100%" height="100%" fill="none"/><g class="logo-container-box logoContainerBox" transform="scale(0.75) translate(106.66665140787762,80)"><g class="containerBody" transform="scale(1.12) translate(11.721953255789572,-25.714285714285722)" ><g class="sampleIconBox" transform="scale(1) translate(0,0)"><g class="sampleIcons_1" transform="scale(2.0660247748954785) translate(14.90858564758301,66.16536979675294)" fill="#00a1e0"><title>Artboard 39</title><g><g data-name="Gravity 1"><path d="M50,59a9,9,0,1,1,9-9A9,9,0,0,1,50,59Zm0-17a8,8,0,1,0,8,8A8,8,0,0,0,50,42Z"></path><path d="M50,38.71a.51.51,0,0,1-.31-.11L47,36.39a.5.5,0,1,1,.62-.78l2.43,2,2.43-2a.5.5,0,1,1,.62.78L50.31,38.6A.51.51,0,0,1,50,38.71Z"></path><path d="M50,33.09a.45.45,0,0,1-.31-.11l-2-1.64a.5.5,0,0,1,.63-.78L50,32l1.73-1.39a.5.5,0,0,1,.63.78l-2,1.64A.45.45,0,0,1,50,33.09Z"></path><path d="M50,27.94a.51.51,0,0,1-.31-.11l-1.42-1.14a.5.5,0,0,1,.63-.78l1.1.89,1.1-.89a.5.5,0,0,1,.63.78l-1.42,1.14A.51.51,0,0,1,50,27.94Z"></path><path d="M36.51,45.87a.51.51,0,0,1-.47-.32.5.5,0,0,1,.29-.64l2.9-1.13-.48-3.07a.5.5,0,0,1,1-.16L40.28,44a.49.49,0,0,1-.31.54l-3.28,1.27Z"></path><path d="M32.48,42.75a.52.52,0,0,1-.47-.32.5.5,0,0,1,.29-.65l2.07-.8L34,38.78a.5.5,0,0,1,.42-.57.51.51,0,0,1,.57.42l.4,2.59a.5.5,0,0,1-.31.54l-2.45,1A.58.58,0,0,1,32.48,42.75Z"></path><path d="M28.77,39.88a.5.5,0,0,1-.18-1l1.32-.51L29.69,37a.5.5,0,0,1,.42-.57.51.51,0,0,1,.57.42L31,38.64a.52.52,0,0,1-.32.55L29,39.84A.39.39,0,0,1,28.77,39.88Z"></path><path d="M39.25,59.87h-.08a.5.5,0,0,1-.42-.57l.48-3.07-2.9-1.13a.5.5,0,0,1-.29-.64.5.5,0,0,1,.65-.29L40,55.43a.49.49,0,0,1,.31.54l-.54,3.48A.5.5,0,0,1,39.25,59.87Z"></path><path d="M34.53,61.8h-.08a.5.5,0,0,1-.42-.57l.34-2.2-2.07-.8a.5.5,0,1,1,.36-.93l2.45,1a.5.5,0,0,1,.31.54L35,61.37A.5.5,0,0,1,34.53,61.8Z"></path><path d="M30.18,63.58h-.07a.5.5,0,0,1-.42-.57l.22-1.4-1.32-.51a.5.5,0,1,1,.36-.93l1.69.65a.52.52,0,0,1,.32.55l-.28,1.79A.51.51,0,0,1,30.18,63.58Z"></path><path d="M52.74,64.5a.51.51,0,0,1-.31-.11l-2.43-2-2.43,2a.5.5,0,0,1-.7-.08.49.49,0,0,1,.08-.7l2.74-2.21a.51.51,0,0,1,.62,0l2.74,2.21a.49.49,0,0,1,.08.7A.52.52,0,0,1,52.74,64.5Z"></path><path d="M52,69.55a.51.51,0,0,1-.31-.11L50,68.05l-1.73,1.39a.5.5,0,0,1-.63-.78l2-1.64a.48.48,0,0,1,.62,0l2,1.64a.49.49,0,0,1,.07.7A.48.48,0,0,1,52,69.55Z"></path><path d="M51.42,74.2a.52.52,0,0,1-.32-.11L50,73.2l-1.1.89a.5.5,0,0,1-.63-.78l1.42-1.14a.48.48,0,0,1,.62,0l1.42,1.14a.49.49,0,0,1,.07.7A.49.49,0,0,1,51.42,74.2Z"></path><path d="M60.75,59.87a.5.5,0,0,1-.49-.42L59.72,56a.49.49,0,0,1,.31-.54l3.28-1.27a.5.5,0,0,1,.65.29.5.5,0,0,1-.29.64l-2.9,1.13.48,3.07a.5.5,0,0,1-.42.57Z"></path><path d="M65.47,61.8a.5.5,0,0,1-.49-.43l-.4-2.59a.5.5,0,0,1,.31-.54l2.45-1a.5.5,0,1,1,.36.93l-2.07.8.34,2.2a.5.5,0,0,1-.42.57Z"></path><path d="M69.82,63.58a.51.51,0,0,1-.5-.43L69,61.36a.52.52,0,0,1,.32-.55l1.69-.65a.5.5,0,1,1,.36.93l-1.32.51.22,1.4a.5.5,0,0,1-.42.57Z"></path><path d="M63.49,45.87l-.18,0L60,44.57a.49.49,0,0,1-.31-.54l.54-3.48a.49.49,0,0,1,.57-.41.5.5,0,0,1,.42.57l-.48,3.07,2.9,1.13a.5.5,0,0,1,.29.64A.51.51,0,0,1,63.49,45.87Z"></path><path d="M67.52,42.75a.58.58,0,0,1-.18,0l-2.45-1a.5.5,0,0,1-.31-.54l.4-2.59a.51.51,0,0,1,.57-.42.5.5,0,0,1,.42.57L65.63,41l2.07.8a.5.5,0,0,1,.29.65A.52.52,0,0,1,67.52,42.75Z"></path><path d="M71.23,39.88a.39.39,0,0,1-.18,0l-1.69-.65a.52.52,0,0,1-.32-.55l.28-1.79a.51.51,0,0,1,.57-.42.5.5,0,0,1,.42.57l-.22,1.4,1.32.51a.5.5,0,0,1-.18,1Z"></path></g></g></g></g><g class="sampleTexts_1" transform="scale(1) translate(0.000006103515630684342,8.890007019042969)"><g class="logo--name svgLogoName_1 logoNameBox" transform="scale(1) translate(196.64000000953675,240)" fill="#000000"><path d="M16.00 0L12.45 0L12.45 0Q8.02 0 4.89-3.13L4.89-3.13L4.89-3.13Q1.76-6.26 1.76-10.69L1.76-10.69L1.76-39.20L1.76-39.20Q1.76-43.63 4.89-46.76L4.89-46.76L4.89-46.76Q8.02-49.89 12.45-49.89L12.45-49.89L16.00-49.89L16.00-49.89Q20.43-49.89 23.55-46.76L23.55-46.76L23.55-46.76Q26.68-43.63 26.68-39.20L26.68-39.20L26.68-37.41L26.68-37.41Q26.68-36.67 26.16-36.14L26.16-36.14L26.16-36.14Q25.66-35.61 24.93-35.61L24.93-35.61L21.34-35.61L21.34-35.61Q20.60-35.61 20.07-36.14L20.07-36.14L20.07-36.14Q19.58-36.67 19.58-37.41L19.58-37.41L19.58-39.20L19.58-39.20Q19.58-40.68 18.53-41.70L18.53-41.70L18.53-41.70Q17.47-42.75 16.00-42.75L16.00-42.75L12.45-42.75L12.45-42.75Q10.97-42.75 9.91-41.70L9.91-41.70L9.91-41.70Q8.89-40.68 8.89-39.20L8.89-39.20L8.89-10.69L8.89-10.69Q8.89-9.21 9.91-8.16L9.91-8.16L9.91-8.16Q10.97-7.14 12.45-7.14L12.45-7.14L16.00-7.14L16.00-7.14Q17.47-7.14 18.53-8.16L18.53-8.16L18.53-8.16Q19.58-9.21 19.58-10.69L19.58-10.69L19.58-12.48L19.58-12.48Q19.58-13.22 20.07-13.71L20.07-13.71L20.07-13.71Q20.60-14.24 21.34-14.24L21.34-14.24L24.93-14.24L24.93-14.24Q25.66-14.24 26.16-13.71L26.16-13.71L26.16-13.71Q26.68-13.22 26.68-12.48L26.68-12.48L26.68-10.69L26.68-10.69Q26.68-6.26 23.55-3.13L23.55-3.13L23.55-3.13Q20.43 0 16.00 0L16.00 0ZM53.37 0L31.99 0L31.99 0Q31.25 0 30.73-0.53L30.73-0.53L30.73-0.53Q30.20-1.05 30.20-1.79L30.20-1.79L30.20-48.09L30.20-48.09Q30.20-48.83 30.73-49.36L30.73-49.36L30.73-49.36Q31.25-49.89 31.99-49.89L31.99-49.89L35.54-49.89L35.54-49.89Q36.28-49.89 36.81-49.36L36.81-49.36L36.81-49.36Q37.34-48.83 37.34-48.09L37.34-48.09L37.34-8.89L37.34-8.89Q37.34-8.16 37.83-7.63L37.83-7.63L37.83-7.63Q38.36-7.14 39.09-7.14L39.09-7.14L53.37-7.14L53.37-7.14Q54.11-7.14 54.60-6.61L54.60-6.61L54.60-6.61Q55.13-6.08 55.13-5.34L55.13-5.34L55.13-1.79L55.13-1.79Q55.13-1.05 54.60-0.53L54.60-0.53L54.60-0.53Q54.11 0 53.37 0L53.37 0ZM76.46-39.20L76.46-10.69L76.46-10.69Q76.46-9.21 75.41-8.16L75.41-8.16L75.41-8.16Q74.36-7.14 72.88-7.14L72.88-7.14L69.33-7.14L69.33-7.14Q67.85-7.14 66.80-8.16L66.80-8.16L66.80-8.16Q65.78-9.21 65.78-10.69L65.78-10.69L65.78-39.20L65.78-39.20Q65.78-40.68 66.80-41.70L66.80-41.70L66.80-41.70Q67.85-42.75 69.33-42.75L69.33-42.75L72.88-42.75L72.88-42.75Q74.36-42.75 75.41-41.70L75.41-41.70L75.41-41.70Q76.46-40.68 76.46-39.20L76.46-39.20ZM72.88-49.89L69.33-49.89L69.33-49.89Q64.90-49.89 61.77-46.72L61.77-46.72L61.77-46.72Q58.64-43.59 58.64-39.20L58.64-39.20L58.64-10.69L58.64-10.69Q58.64-6.26 61.77-3.13L61.77-3.13L61.77-3.13Q64.90 0 69.33 0L69.33 0L72.88 0L72.88 0Q77.31 0 80.44-3.13L80.44-3.13L80.44-3.13Q83.57-6.26 83.57-10.69L83.57-10.69L83.57-39.20L83.57-39.20Q83.57-43.59 80.44-46.72L80.44-46.72L80.44-46.72Q77.31-49.89 72.88-49.89L72.88-49.89ZM101.32 0L97.77 0L97.77 0Q93.34 0 90.21-3.13L90.21-3.13L90.21-3.13Q87.08-6.26 87.08-10.69L87.08-10.69L87.08-48.09L87.08-48.09Q87.08-48.83 87.61-49.36L87.61-49.36L87.61-49.36Q88.14-49.89 88.88-49.89L88.88-49.89L92.43-49.89L92.43-49.89Q93.16-49.89 93.69-49.36L93.69-49.36L93.69-49.36Q94.22-48.83 94.22-48.09L94.22-48.09L94.22-10.69L94.22-10.69Q94.22-9.21 95.24-8.16L95.24-8.16L95.24-8.16Q96.29-7.14 97.77-7.14L97.77-7.14L101.32-7.14L101.32-7.14Q102.80-7.14 103.85-8.16L103.85-8.16L103.85-8.16Q104.91-9.21 104.91-10.69L104.91-10.69L104.91-48.09L104.91-48.09Q104.91-48.83 105.40-49.36L105.40-49.36L105.40-49.36Q105.93-49.89 106.66-49.89L106.66-49.89L110.25-49.89L110.25-49.89Q110.99-49.89 111.48-49.36L111.48-49.36L111.48-49.36Q112.01-48.83 112.01-48.09L112.01-48.09L112.01-10.69L112.01-10.69Q112.01-6.26 108.88-3.13L108.88-3.13L108.88-3.13Q105.75 0 101.32 0L101.32 0ZM124.42-7.14L129.76-7.14L129.76-7.14Q131.24-7.14 132.29-8.16L132.29-8.16L132.29-8.16Q133.35-9.21 133.35-10.69L133.35-10.69L133.35-39.20L133.35-39.20Q133.35-40.68 132.29-41.70L132.29-41.70L132.29-41.70Q131.24-42.75 129.76-42.75L129.76-42.75L124.42-42.75L124.42-42.75Q123.68-42.75 123.15-42.22L123.15-42.22L123.15-42.22Q122.66-41.70 122.66-40.96L122.66-40.96L122.66-8.89L122.66-8.89Q122.66-8.16 123.15-7.63L123.15-7.63L123.15-7.63Q123.68-7.14 124.42-7.14L124.42-7.14ZM129.76 0L117.32 0L117.32 0Q116.58 0 116.05-0.53L116.05-0.53L116.05-0.53Q115.52-1.05 115.52-1.79L115.52-1.79L115.52-48.09L115.52-48.09Q115.52-48.83 116.05-49.36L116.05-49.36L116.05-49.36Q116.58-49.89 117.32-49.89L117.32-49.89L129.76-49.89L129.76-49.89Q134.19-49.89 137.32-46.76L137.32-46.76L137.32-46.76Q140.45-43.63 140.45-39.20L140.45-39.20L140.45-10.69L140.45-10.69Q140.45-6.26 137.32-3.13L137.32-3.13L137.32-3.13Q134.19 0 129.76 0L129.76 0ZM153.70-18.84L156.52-38.60L156.52-38.60Q156.52-38.74 156.69-38.74L156.69-38.74L156.69-38.74Q156.83-38.74 156.87-38.60L156.87-38.60L159.68-18.84L159.68-18.84Q159.75-18.42 159.47-18.11L159.47-18.11L159.47-18.11Q159.22-17.82 158.80-17.82L158.80-17.82L154.58-17.82L154.58-17.82Q154.16-17.82 153.88-18.11L153.88-18.11L153.88-18.11Q153.63-18.42 153.70-18.84L153.70-18.84ZM163.93 0L167.52 0L167.52 0Q168.33 0 168.86-0.60L168.86-0.60L168.86-0.60Q169.38-1.23 169.28-2.04L169.28-2.04L162.67-48.34L162.67-48.34Q162.46-49.89 160.91-49.89L160.91-49.89L152.47-49.89L152.47-49.89Q150.93-49.89 150.71-48.34L150.71-48.34L144.11-2.04L144.11-2.04Q143.96-1.23 144.49-0.60L144.49-0.60L144.49-0.60Q145.05 0 145.86 0L145.86 0L149.45 0L149.45 0Q151.00 0 151.21-1.51L151.21-1.51L152.51-10.69L160.84-10.69L162.14-1.51L162.14-1.51Q162.39 0 163.93 0L163.93 0ZM186.86-48.34L181.58-11.29L181.58-11.29Q181.55-11.14 181.41-11.14L181.41-11.14L181.41-11.14Q181.23-11.14 181.23-11.29L181.23-11.29L175.92-48.34L175.92-48.34Q175.71-49.89 174.16-49.89L174.16-49.89L170.58-49.89L170.58-49.89Q169.77-49.89 169.21-49.25L169.21-49.25L169.21-49.25Q168.68-48.66 168.82-47.85L168.82-47.85L175.43-1.51L175.43-1.51Q175.64 0 177.19 0L177.19 0L185.63 0L185.63 0Q187.17 0 187.38-1.51L187.38-1.51L193.99-47.85L193.99-47.85Q194.10-48.66 193.57-49.25L193.57-49.25L193.57-49.25Q193.04-49.89 192.23-49.89L192.23-49.89L188.65-49.89L188.65-49.89Q187.10-49.89 186.86-48.34L186.86-48.34ZM202.96 0L199.41 0L199.41 0Q198.67 0 198.14-0.53L198.14-0.53L198.14-0.53Q197.61-1.05 197.61-1.79L197.61-1.79L197.61-48.09L197.61-48.09Q197.61-48.83 198.14-49.36L198.14-49.36L198.14-49.36Q198.67-49.89 199.41-49.89L199.41-49.89L202.96-49.89L202.96-49.89Q203.70-49.89 204.22-49.36L204.22-49.36L204.22-49.36Q204.75-48.83 204.75-48.09L204.75-48.09L204.75-1.79L204.75-1.79Q204.75-1.05 204.22-0.53L204.22-0.53L204.22-0.53Q203.70 0 202.96 0L202.96 0ZM231.43-49.89L210.06-49.89L210.06-49.89Q209.32-49.89 208.79-49.36L208.79-49.36L208.79-49.36Q208.27-48.83 208.27-48.09L208.27-48.09L208.27-44.54L208.27-44.54Q208.27-43.80 208.79-43.28L208.79-43.28L208.79-43.28Q209.32-42.75 210.06-42.75L210.06-42.75L215.40-42.75L215.40-42.75Q216.14-42.75 216.63-42.22L216.63-42.22L216.63-42.22Q217.16-41.70 217.16-40.96L217.16-40.96L217.16-1.79L217.16-1.79Q217.16-1.05 217.69-0.53L217.69-0.53L217.69-0.53Q218.21 0 218.95 0L218.95 0L222.50 0L222.50 0Q223.24 0 223.77-0.53L223.77-0.53L223.77-0.53Q224.30-1.05 224.30-1.79L224.30-1.79L224.30-40.96L224.30-40.96Q224.30-41.70 224.82-42.22L224.82-42.22L224.82-42.22Q225.35-42.75 226.09-42.75L226.09-42.75L231.43-42.75L231.43-42.75Q232.17-42.75 232.66-43.28L232.66-43.28L232.66-43.28Q233.19-43.80 233.19-44.54L233.19-44.54L233.19-48.09L233.19-48.09Q233.19-48.83 232.66-49.36L232.66-49.36L232.66-49.36Q232.17-49.89 231.43-49.89L231.43-49.89ZM260.54-49.89L256.71-49.89L256.71-49.89Q255.52-49.89 255.06-48.73L255.06-48.73L249.79-35.19L249.79-35.19Q249.75-35.09 249.61-35.09L249.61-35.09L249.61-35.09Q249.50-35.09 249.47-35.19L249.47-35.19L244.20-48.73L244.20-48.73Q243.74-49.89 242.54-49.89L242.54-49.89L238.71-49.89L238.71-49.89Q237.76-49.89 237.23-49.11L237.23-49.11L237.23-49.11Q236.71-48.30 237.06-47.46L237.06-47.46L246.06-24.26L246.06-1.79L246.06-1.79Q246.06-1.05 246.59-0.53L246.59-0.53L246.59-0.53Q247.11 0 247.85 0L247.85 0L251.40 0L251.40 0Q252.14 0 252.67-0.53L252.67-0.53L252.67-0.53Q253.20-1.05 253.20-1.79L253.20-1.79L253.20-24.26L262.20-47.46L262.20-47.46Q262.55-48.30 262.02-49.11L262.02-49.11L262.02-49.11Q261.49-49.89 260.54-49.89L260.54-49.89Z"/></g><g id="" class="logo--name svgSloganText_1 sloganBox" transform="scale(1) translate(197.27000000476838,271.86999931335447)" fill="#00a1e0"><path d="M5.33-17.47L5.33-17.47Q6.70-17.47 7.58-17.02L7.58-17.02L7.58-15.36L7.58-15.36Q6.86-15.67 6.36-15.67L6.36-15.67L6.36-15.67Q5.40-15.67 5.06-15.32L5.06-15.32L5.06-15.32Q4.73-14.98 4.73-14.16L4.73-14.16L4.73-12.26L7.58-12.26L7.58-10.46L4.73-10.46L4.73 0L2.47 0L2.47-10.46L1.13-10.46L1.13-12.26L2.47-12.26L2.47-13.92L2.47-13.92Q2.47-17.47 5.33-17.47L5.33-17.47ZM15.02-12.50L15.02-12.50Q16.54-12.50 17.70-11.87L17.70-11.87L17.70-11.87Q18.86-11.23 19.51-10.06L19.51-10.06L19.51-10.06Q20.16-8.88 20.16-7.32L20.16-7.32L20.16-5.62L11.59-5.62L11.59-5.62Q11.64-3.67 12.50-2.62L12.50-2.62L12.50-2.62Q13.37-1.56 15.07-1.56L15.07-1.56L15.07-1.56Q16.58-1.56 17.30-2.45L17.30-2.45L17.30-2.45Q18.02-3.34 18.02-4.56L18.02-4.56L20.16-4.56L20.16-4.56Q20.16-3.12 19.50-2.04L19.50-2.04L19.50-2.04Q18.84-0.96 17.68-0.36L17.68-0.36L17.68-0.36Q16.51 0.24 15.02 0.24L15.02 0.24L14.93 0.24L14.93 0.24Q12.34 0.24 10.84-1.43L10.84-1.43L10.84-1.43Q9.34-3.10 9.34-5.88L9.34-5.88L9.34-6.36L9.34-6.36Q9.34-8.18 10.01-9.58L10.01-9.58L10.01-9.58Q10.68-10.97 11.93-11.74L11.93-11.74L11.93-11.74Q13.18-12.50 14.86-12.50L14.86-12.50L15.02-12.50ZM14.90-10.70L14.90-10.70Q13.54-10.70 12.68-9.86L12.68-9.86L12.68-9.86Q11.83-9.02 11.64-7.37L11.64-7.37L17.93-7.37L17.93-7.66L17.93-7.66Q17.93-9.02 17.10-9.86L17.10-9.86L17.10-9.86Q16.27-10.70 14.90-10.70L14.90-10.70ZM28.37-12.50L28.37-12.50Q29.88-12.50 31.04-11.87L31.04-11.87L31.04-11.87Q32.21-11.23 32.86-10.06L32.86-10.06L32.86-10.06Q33.50-8.88 33.50-7.32L33.50-7.32L33.50-5.62L24.94-5.62L24.94-5.62Q24.98-3.67 25.85-2.62L25.85-2.62L25.85-2.62Q26.71-1.56 28.42-1.56L28.42-1.56L28.42-1.56Q29.93-1.56 30.65-2.45L30.65-2.45L30.65-2.45Q31.37-3.34 31.37-4.56L31.37-4.56L33.50-4.56L33.50-4.56Q33.50-3.12 32.84-2.04L32.84-2.04L32.84-2.04Q32.18-0.96 31.02-0.36L31.02-0.36L31.02-0.36Q29.86 0.24 28.37 0.24L28.37 0.24L28.27 0.24L28.27 0.24Q25.68 0.24 24.18-1.43L24.18-1.43L24.18-1.43Q22.68-3.10 22.68-5.88L22.68-5.88L22.68-6.36L22.68-6.36Q22.68-8.18 23.35-9.58L23.35-9.58L23.35-9.58Q24.02-10.97 25.27-11.74L25.27-11.74L25.27-11.74Q26.52-12.50 28.20-12.50L28.20-12.50L28.37-12.50ZM28.25-10.70L28.25-10.70Q26.88-10.70 26.03-9.86L26.03-9.86L26.03-9.86Q25.18-9.02 24.98-7.37L24.98-7.37L31.27-7.37L31.27-7.66L31.27-7.66Q31.27-9.02 30.44-9.86L30.44-9.86L30.44-9.86Q29.62-10.70 28.25-10.70L28.25-10.70ZM36.89-17.28L39.14-17.28L39.14 0L36.89 0L36.89-17.28ZM51.72-16.18L51.72-12.26L54.58-12.26L54.58-10.46L51.72-10.46L51.72-3.14L51.72-3.14Q51.72-2.28 52.06-1.90L52.06-1.90L52.06-1.90Q52.39-1.51 53.09-1.51L53.09-1.51L53.09-1.51Q53.71-1.51 54.58-1.87L54.58-1.87L54.58-0.19L54.58-0.19Q53.71 0.24 52.34 0.24L52.34 0.24L52.34 0.24Q50.93 0.24 50.20-0.60L50.20-0.60L50.20-0.60Q49.46-1.44 49.46-3.26L49.46-3.26L49.46-10.46L48.12-10.46L48.12-12.26L49.54-12.26L50.30-16.18L51.72-16.18ZM59.64-17.28L59.64-10.73L59.64-10.73Q61.15-12.50 63.43-12.50L63.43-12.50L63.43-12.50Q65.45-12.50 66.60-11.42L66.60-11.42L66.60-11.42Q67.75-10.34 67.75-8.26L67.75-8.26L67.75 0L65.50 0L65.50-7.85L65.50-7.85Q65.50-10.70 62.90-10.70L62.90-10.70L62.90-10.70Q62.04-10.70 61.30-10.25L61.30-10.25L61.30-10.25Q60.55-9.79 60.10-9.01L60.10-9.01L60.10-9.01Q59.64-8.23 59.64-7.30L59.64-7.30L59.64 0L57.38 0L57.38-17.28L59.64-17.28ZM76.54-12.50L76.54-12.50Q78.05-12.50 79.21-11.87L79.21-11.87L79.21-11.87Q80.38-11.23 81.02-10.06L81.02-10.06L81.02-10.06Q81.67-8.88 81.67-7.32L81.67-7.32L81.67-5.62L73.10-5.62L73.10-5.62Q73.15-3.67 74.02-2.62L74.02-2.62L74.02-2.62Q74.88-1.56 76.58-1.56L76.58-1.56L76.58-1.56Q78.10-1.56 78.82-2.45L78.82-2.45L78.82-2.45Q79.54-3.34 79.54-4.56L79.54-4.56L81.67-4.56L81.67-4.56Q81.67-3.12 81.01-2.04L81.01-2.04L81.01-2.04Q80.35-0.96 79.19-0.36L79.19-0.36L79.19-0.36Q78.02 0.24 76.54 0.24L76.54 0.24L76.44 0.24L76.44 0.24Q73.85 0.24 72.35-1.43L72.35-1.43L72.35-1.43Q70.85-3.10 70.85-5.88L70.85-5.88L70.85-6.36L70.85-6.36Q70.85-8.18 71.52-9.58L71.52-9.58L71.52-9.58Q72.19-10.97 73.44-11.74L73.44-11.74L73.44-11.74Q74.69-12.50 76.37-12.50L76.37-12.50L76.54-12.50ZM76.42-10.70L76.42-10.70Q75.05-10.70 74.20-9.86L74.20-9.86L74.20-9.86Q73.34-9.02 73.15-7.37L73.15-7.37L79.44-7.37L79.44-7.66L79.44-7.66Q79.44-9.02 78.61-9.86L78.61-9.86L78.61-9.86Q77.78-10.70 76.42-10.70L76.42-10.70ZM95.62-12.50L95.62-12.50Q97.08-12.50 98.24-11.87L98.24-11.87L98.24-11.87Q99.41-11.23 100.06-10.08L100.06-10.08L100.06-10.08Q100.70-8.93 100.70-7.44L100.70-7.44L98.47-7.44L98.47-7.44Q98.47-8.93 97.72-9.82L97.72-9.82L97.72-9.82Q96.96-10.70 95.54-10.70L95.54-10.70L95.54-10.70Q94.06-10.70 93.18-9.71L93.18-9.71L93.18-9.71Q92.30-8.71 92.30-6.98L92.30-6.98L92.30-5.69L92.30-5.69Q92.30-3.60 93.17-2.58L93.17-2.58L93.17-2.58Q94.03-1.56 95.62-1.56L95.62-1.56L95.62-1.56Q97.08-1.56 97.81-2.44L97.81-2.44L97.81-2.44Q98.54-3.31 98.54-4.80L98.54-4.80L100.70-4.80L100.70-4.80Q100.70-2.50 99.32-1.13L99.32-1.13L99.32-1.13Q97.94 0.24 95.64 0.24L95.64 0.24L95.45 0.24L95.45 0.24Q93.82 0.24 92.59-0.52L92.59-0.52L92.59-0.52Q91.37-1.27 90.71-2.64L90.71-2.64L90.71-2.64Q90.05-4.01 90.05-5.83L90.05-5.83L90.05-6.41L90.05-6.41Q90.05-8.23 90.72-9.61L90.72-9.61L90.72-9.61Q91.39-10.99 92.62-11.75L92.62-11.75L92.62-11.75Q93.84-12.50 95.42-12.50L95.42-12.50L95.62-12.50ZM103.97-17.28L106.22-17.28L106.22 0L103.97 0L103.97-17.28ZM115.20-12.50L115.20-12.50Q117.77-12.50 119.30-10.92L119.30-10.92L119.30-10.92Q120.84-9.34 120.84-6.58L120.84-6.58L120.84-5.69L120.84-5.69Q120.84-2.93 119.33-1.34L119.33-1.34L119.33-1.34Q117.82 0.24 115.20 0.24L115.20 0.24L115.20 0.24Q112.58 0.24 111.07-1.34L111.07-1.34L111.07-1.34Q109.56-2.93 109.56-5.69L109.56-5.69L109.56-6.58L109.56-6.58Q109.56-9.34 111.10-10.92L111.10-10.92L111.10-10.92Q112.63-12.50 115.20-12.50L115.20-12.50ZM115.20-10.70L115.20-10.70Q113.59-10.70 112.70-9.60L112.70-9.60L112.70-9.60Q111.82-8.50 111.82-6.36L111.82-6.36L111.82-5.90L111.82-5.90Q111.82-3.82 112.69-2.69L112.69-2.69L112.69-2.69Q113.57-1.56 115.20-1.56L115.20-1.56L115.20-1.56Q116.78-1.56 117.68-2.68L117.68-2.68L117.68-2.68Q118.58-3.79 118.58-5.90L118.58-5.90L118.58-6.36L118.58-6.36Q118.58-8.45 117.71-9.58L117.71-9.58L117.71-9.58Q116.83-10.70 115.20-10.70L115.20-10.70ZM134.33-12.26L134.33-2.40L134.33-2.40Q134.33-1.97 134.52-1.76L134.52-1.76L134.52-1.76Q134.71-1.56 135-1.56L135-1.56L135-1.56Q135.53-1.56 136.08-1.90L136.08-1.90L136.08-0.24L136.08-0.24Q135.34 0.24 134.57 0.24L134.57 0.24L134.57 0.24Q133.27 0.24 132.76-0.29L132.76-0.29L132.76-0.29Q132.24-0.82 132.19-1.78L132.19-1.78L132.19-1.78Q131.54-0.82 130.52-0.29L130.52-0.29L130.52-0.29Q129.50 0.24 128.18 0.24L128.18 0.24L128.18 0.24Q126.34 0.24 125.15-0.85L125.15-0.85L125.15-0.85Q123.96-1.94 123.96-4.01L123.96-4.01L123.96-12.26L126.22-12.26L126.22-4.42L126.22-4.42Q126.22-1.56 128.81-1.56L128.81-1.56L128.81-1.56Q129.65-1.56 130.40-2.02L130.40-2.02L130.40-2.02Q131.16-2.47 131.62-3.25L131.62-3.25L131.62-3.25Q132.07-4.03 132.07-4.97L132.07-4.97L132.07-12.26L134.33-12.26ZM148.92-17.28L148.92 0L147.24 0L147.24 0Q147.07-0.77 146.93-1.68L146.93-1.68L146.93-1.68Q145.56 0.24 143.14 0.24L143.14 0.24L143.14 0.24Q140.83 0.24 139.50-1.46L139.50-1.46L139.50-1.46Q138.17-3.17 138.17-6.14L138.17-6.14L138.17-6.41L138.17-6.41Q138.17-9.22 139.48-10.86L139.48-10.86L139.48-10.86Q140.78-12.50 143.14-12.50L143.14-12.50L143.14-12.50Q145.42-12.50 146.66-10.70L146.66-10.70L146.66-17.28L148.92-17.28ZM143.54-10.70L143.54-10.70Q141.94-10.70 141.18-9.59L141.18-9.59L141.18-9.59Q140.42-8.47 140.42-6.12L140.42-6.12L140.42-6.12Q140.42-3.77 141.19-2.66L141.19-2.66L141.19-2.66Q141.96-1.56 143.54-1.56L143.54-1.56L143.54-1.56Q146.69-1.56 146.69-6.12L146.69-6.12L146.69-6.12Q146.69-8.47 145.90-9.59L145.90-9.59L145.90-9.59Q145.10-10.70 143.54-10.70L143.54-10.70Z"/></g></g></g></g></svg>